<svg width="107" height="31" viewBox="0 0 107 31" fill="none" xmlns="http://www.w3.org/2000/svg">
<path d="M47.0625 18.8126H45.5547L39.8281 10.0469V18.8126H38.3203V7.43756H39.8281L45.5703 16.2422V7.43756H47.0625V18.8126ZM54.7188 18.8126C54.6354 18.6459 54.5677 18.349 54.5156 17.9219C53.8438 18.6199 53.0417 18.9688 52.1094 18.9688C51.276 18.9688 50.5911 18.7344 50.0547 18.2657C49.5234 17.7917 49.2578 17.1928 49.2578 16.4688C49.2578 15.5886 49.5911 14.9063 50.2578 14.4219C50.9297 13.9324 51.8724 13.6876 53.0859 13.6876H54.4922V13.0235C54.4922 12.5183 54.3411 12.1172 54.0391 11.8204C53.737 11.5183 53.2917 11.3672 52.7031 11.3672C52.1875 11.3672 51.7552 11.4975 51.4062 11.7579C51.0573 12.0183 50.8828 12.3334 50.8828 12.7032H49.4297C49.4297 12.2813 49.5781 11.8751 49.875 11.4844C50.1771 11.0886 50.5833 10.7761 51.0938 10.5469C51.6094 10.3178 52.1745 10.2032 52.7891 10.2032C53.763 10.2032 54.526 10.448 55.0781 10.9376C55.6302 11.4219 55.9167 12.0912 55.9375 12.9454V16.836C55.9375 17.612 56.0365 18.2292 56.2344 18.6876V18.8126H54.7188ZM52.3203 17.711C52.7734 17.711 53.2031 17.5938 53.6094 17.3594C54.0156 17.1251 54.3099 16.8204 54.4922 16.4454V14.711H53.3594C51.5885 14.711 50.7031 15.2292 50.7031 16.2657C50.7031 16.7188 50.8542 17.073 51.1562 17.3282C51.4583 17.5834 51.8464 17.711 52.3203 17.711ZM63.125 16.5704C63.125 16.1797 62.9766 15.8777 62.6797 15.6641C62.388 15.4454 61.875 15.2579 61.1406 15.1016C60.4115 14.9454 59.8307 14.7579 59.3984 14.5391C58.9714 14.3204 58.6536 14.06 58.4453 13.7579C58.2422 13.4558 58.1406 13.0964 58.1406 12.6797C58.1406 11.987 58.4323 11.4011 59.0156 10.9219C59.6042 10.4428 60.3542 10.2032 61.2656 10.2032C62.224 10.2032 63 10.4506 63.5938 10.9454C64.1927 11.4402 64.4922 12.073 64.4922 12.8438H63.0391C63.0391 12.448 62.8698 12.1068 62.5312 11.8204C62.1979 11.5339 61.776 11.3907 61.2656 11.3907C60.7396 11.3907 60.3281 11.5053 60.0312 11.7344C59.7344 11.9636 59.5859 12.2631 59.5859 12.6329C59.5859 12.9818 59.724 13.2449 60 13.4219C60.276 13.599 60.7734 13.7683 61.4922 13.9297C62.2161 14.0912 62.8021 14.2839 63.25 14.5079C63.6979 14.7318 64.0286 15.0027 64.2422 15.3204C64.4609 15.6329 64.5703 16.0157 64.5703 16.4688C64.5703 17.224 64.2682 17.8308 63.6641 18.2891C63.0599 18.7422 62.276 18.9688 61.3125 18.9688C60.6354 18.9688 60.0365 18.849 59.5156 18.6094C58.9948 18.3699 58.5859 18.0365 58.2891 17.6094C57.9974 17.1771 57.8516 16.711 57.8516 16.211H59.2969C59.3229 16.6954 59.5156 17.0808 59.875 17.3672C60.2396 17.6485 60.7188 17.7891 61.3125 17.7891C61.8594 17.7891 62.2969 17.6797 62.625 17.461C62.9583 17.237 63.125 16.9402 63.125 16.5704ZM68.4141 8.31256V10.3594H69.9922V11.4766H68.4141V16.7188C68.4141 17.0574 68.4844 17.3126 68.625 17.4844C68.7656 17.6511 69.0052 17.7344 69.3438 17.7344C69.5104 17.7344 69.7396 17.7032 70.0312 17.6407V18.8126C69.651 18.9167 69.2812 18.9688 68.9219 18.9688C68.276 18.9688 67.7891 18.7735 67.4609 18.3829C67.1328 17.9922 66.9688 17.4376 66.9688 16.7188V11.4766H65.4297V10.3594H66.9688V8.31256H68.4141ZM76.2891 18.8126H74.8359V9.17975L71.9219 10.2501V8.93756L76.0625 7.38287H76.2891V18.8126ZM87.9766 18.8126H80.5234V17.7735L84.4609 13.3985C85.0443 12.737 85.4453 12.2006 85.6641 11.7891C85.888 11.3725 86 10.9428 86 10.5001C86 9.90631 85.8203 9.41933 85.4609 9.03912C85.1016 8.65892 84.6224 8.46881 84.0234 8.46881C83.3047 8.46881 82.7448 8.67454 82.3438 9.086C81.9479 9.49225 81.75 10.06 81.75 10.7891H80.3047C80.3047 9.74225 80.6406 8.89589 81.3125 8.25006C81.9896 7.60423 82.8932 7.28131 84.0234 7.28131C85.0807 7.28131 85.9167 7.55996 86.5312 8.11725C87.1458 8.66933 87.4531 9.40631 87.4531 10.3282C87.4531 11.448 86.7396 12.7813 85.3125 14.3282L82.2656 17.6329H87.9766V18.8126ZM96.4062 10.4063C96.4062 10.974 96.2552 11.4792 95.9531 11.9219C95.6562 12.3646 95.2526 12.711 94.7422 12.961C95.3359 13.2162 95.8047 13.5886 96.1484 14.0782C96.4974 14.5678 96.6719 15.1225 96.6719 15.7422C96.6719 16.7266 96.3385 17.5105 95.6719 18.0938C95.0104 18.6771 94.138 18.9688 93.0547 18.9688C91.9609 18.9688 91.0833 18.6771 90.4219 18.0938C89.7656 17.5053 89.4375 16.7214 89.4375 15.7422C89.4375 15.1277 89.6042 14.573 89.9375 14.0782C90.276 13.5834 90.7422 13.2084 91.3359 12.9532C90.8307 12.7032 90.4323 12.3568 90.1406 11.9141C89.849 11.4714 89.7031 10.9688 89.7031 10.4063C89.7031 9.44798 90.0104 8.68756 90.625 8.12506C91.2396 7.56256 92.0495 7.28131 93.0547 7.28131C94.0547 7.28131 94.862 7.56256 95.4766 8.12506C96.0964 8.68756 96.4062 9.44798 96.4062 10.4063ZM95.2266 15.711C95.2266 15.0756 95.0234 14.5574 94.6172 14.1563C94.2161 13.7553 93.6901 13.5547 93.0391 13.5547C92.388 13.5547 91.8646 13.7527 91.4688 14.1485C91.0781 14.5443 90.8828 15.0652 90.8828 15.711C90.8828 16.3568 91.0729 16.8646 91.4531 17.2344C91.8385 17.6042 92.3724 17.7891 93.0547 17.7891C93.7318 17.7891 94.263 17.6042 94.6484 17.2344C95.0339 16.8594 95.2266 16.3516 95.2266 15.711ZM93.0547 8.46881C92.487 8.46881 92.026 8.64589 91.6719 9.00006C91.3229 9.34902 91.1484 9.82558 91.1484 10.4297C91.1484 11.0079 91.3203 11.4766 91.6641 11.836C92.013 12.1902 92.4766 12.3672 93.0547 12.3672C93.6328 12.3672 94.0938 12.1902 94.4375 11.836C94.7865 11.4766 94.9609 11.0079 94.9609 10.4297C94.9609 9.85162 94.7812 9.38027 94.4219 9.01569C94.0625 8.6511 93.6068 8.46881 93.0547 8.46881ZM104.031 13.8126C103.729 14.1719 103.367 14.461 102.945 14.6797C102.529 14.8985 102.07 15.0079 101.57 15.0079C100.914 15.0079 100.341 14.8464 99.8516 14.5235C99.3672 14.2006 98.9922 13.7475 98.7266 13.1641C98.4609 12.5756 98.3281 11.9271 98.3281 11.2188C98.3281 10.4584 98.4714 9.7735 98.7578 9.16412C99.0495 8.55475 99.4609 8.0886 99.9922 7.76569C100.523 7.44277 101.143 7.28131 101.852 7.28131C102.977 7.28131 103.862 7.70319 104.508 8.54694C105.159 9.38548 105.484 10.5313 105.484 11.9844V12.4063C105.484 14.6199 105.047 16.237 104.172 17.2579C103.297 18.2735 101.977 18.7943 100.211 18.8204H99.9297V17.6016H100.234C101.427 17.5808 102.344 17.2709 102.984 16.6719C103.625 16.0678 103.974 15.1146 104.031 13.8126ZM101.805 13.8126C102.289 13.8126 102.734 13.6641 103.141 13.3672C103.552 13.0704 103.852 12.7032 104.039 12.2657V11.6876C104.039 10.7396 103.833 9.96881 103.422 9.37506C103.01 8.78131 102.49 8.48444 101.859 8.48444C101.224 8.48444 100.714 8.72923 100.328 9.21881C99.9427 9.70319 99.75 10.3438 99.75 11.1407C99.75 11.9167 99.9349 12.5574 100.305 13.0626C100.68 13.5626 101.18 13.8126 101.805 13.8126Z" fill="black"/>
<path d="M12 14.7447C14.21 14.7447 16 12.6403 16 10.0421C16 7.4439 14.21 5.33949 12 5.33949C9.79 5.33949 8 7.4439 8 10.0421C8 12.6403 9.79 14.7447 12 14.7447ZM12 17.096C9.33 17.096 4 18.6713 4 21.7985V24.1498H20V21.7985C20 18.6713 14.67 17.096 12 17.096Z" fill="black" fill-opacity="0.54"/>
</svg>
