<svg width="155" height="30" viewBox="0 0 155 30" fill="none" xmlns="http://www.w3.org/2000/svg">
<path d="M37.3203 17.8125V6.4375H41.0391C42.2734 6.4375 43.2005 6.69271 43.8203 7.20312C44.4453 7.71354 44.7578 8.46875 44.7578 9.46875C44.7578 10 44.6068 10.4714 44.3047 10.8828C44.0026 11.2891 43.5911 11.6042 43.0703 11.8281C43.6849 12 44.1693 12.3281 44.5234 12.8125C44.8828 13.2917 45.0625 13.8646 45.0625 14.5312C45.0625 15.5521 44.7318 16.3542 44.0703 16.9375C43.4089 17.5208 42.474 17.8125 41.2656 17.8125H37.3203ZM38.8203 12.4922V16.5859H41.2969C41.9948 16.5859 42.5443 16.4062 42.9453 16.0469C43.3516 15.6823 43.5547 15.1823 43.5547 14.5469C43.5547 13.1771 42.8099 12.4922 41.3203 12.4922H38.8203ZM38.8203 11.2891H41.0859C41.7422 11.2891 42.2656 11.125 42.6562 10.7969C43.0521 10.4688 43.25 10.0234 43.25 9.46094C43.25 8.83594 43.0677 8.38281 42.7031 8.10156C42.3385 7.8151 41.7839 7.67188 41.0391 7.67188H38.8203V11.2891ZM50.5703 17.9688C49.4245 17.9688 48.4922 17.5938 47.7734 16.8438C47.0547 16.0885 46.6953 15.0807 46.6953 13.8203V13.5547C46.6953 12.7161 46.8542 11.9688 47.1719 11.3125C47.4948 10.651 47.9427 10.1354 48.5156 9.76562C49.0938 9.39062 49.7188 9.20312 50.3906 9.20312C51.4896 9.20312 52.3438 9.5651 52.9531 10.2891C53.5625 11.013 53.8672 12.0495 53.8672 13.3984V14H48.1406C48.1615 14.8333 48.4036 15.5078 48.8672 16.0234C49.3359 16.5339 49.9297 16.7891 50.6484 16.7891C51.1589 16.7891 51.5911 16.6849 51.9453 16.4766C52.2995 16.2682 52.6094 15.9922 52.875 15.6484L53.7578 16.3359C53.0495 17.4245 51.987 17.9688 50.5703 17.9688ZM50.3906 10.3906C49.8073 10.3906 49.3177 10.6042 48.9219 11.0312C48.526 11.4531 48.2812 12.0469 48.1875 12.8125H52.4219V12.7031C52.3802 11.9688 52.1823 11.401 51.8281 11C51.474 10.5938 50.9948 10.3906 50.3906 10.3906ZM59.2578 9.84375C60.3203 9.84375 61.1693 10.2005 61.8047 10.9141C62.4453 11.6224 62.7656 12.5573 62.7656 13.7188V13.8516C62.7656 14.6484 62.612 15.362 62.3047 15.9922C61.9974 16.6172 61.5547 17.1042 60.9766 17.4531C60.4036 17.7969 59.7422 17.9688 58.9922 17.9688C57.8568 17.9688 56.9427 17.5911 56.25 16.8359C55.5573 16.0755 55.2109 15.0573 55.2109 13.7812V13.0781C55.2109 11.3021 55.5391 9.89062 56.1953 8.84375C56.8568 7.79688 57.8307 7.15885 59.1172 6.92969C59.8464 6.79948 60.3385 6.64062 60.5938 6.45312C60.849 6.26562 60.9766 6.00781 60.9766 5.67969H62.1641C62.1641 6.33073 62.0156 6.83854 61.7188 7.20312C61.4271 7.56771 60.9583 7.82552 60.3125 7.97656L59.2344 8.21875C58.375 8.42188 57.7292 8.76562 57.2969 9.25C56.8698 9.72917 56.5911 10.3698 56.4609 11.1719C57.2266 10.2865 58.1589 9.84375 59.2578 9.84375ZM58.9766 11.0312C58.2682 11.0312 57.7057 11.2708 57.2891 11.75C56.8724 12.224 56.6641 12.8828 56.6641 13.7266V13.8516C56.6641 14.7578 56.8724 15.4766 57.2891 16.0078C57.7109 16.5339 58.2786 16.7969 58.9922 16.7969C59.7109 16.7969 60.2786 16.5312 60.6953 16C61.112 15.4688 61.3203 14.6927 61.3203 13.6719C61.3203 12.875 61.1094 12.237 60.6875 11.7578C60.2708 11.2734 59.7005 11.0312 58.9766 11.0312ZM67.3984 13.5703H63.5859V12.3906H67.3984V13.5703ZM75.9531 13.6797C75.9531 14.9661 75.6589 16.0026 75.0703 16.7891C74.4818 17.5755 73.6849 17.9688 72.6797 17.9688C71.6536 17.9688 70.8464 17.6432 70.2578 16.9922V21.0625H68.8125V9.35938H70.1328L70.2031 10.2969C70.7917 9.56771 71.6094 9.20312 72.6562 9.20312C73.6719 9.20312 74.474 9.58594 75.0625 10.3516C75.6562 11.1172 75.9531 12.1823 75.9531 13.5469V13.6797ZM74.5078 13.5156C74.5078 12.5625 74.3047 11.8099 73.8984 11.2578C73.4922 10.7057 72.9349 10.4297 72.2266 10.4297C71.3516 10.4297 70.6953 10.8177 70.2578 11.5938V15.6328C70.6901 16.4036 71.3516 16.7891 72.2422 16.7891C72.9349 16.7891 73.4844 16.5156 73.8906 15.9688C74.3021 15.4167 74.5078 14.599 74.5078 13.5156ZM83.0156 17.8125C82.9323 17.6458 82.8646 17.349 82.8125 16.9219C82.1406 17.6198 81.3385 17.9688 80.4062 17.9688C79.5729 17.9688 78.888 17.7344 78.3516 17.2656C77.8203 16.7917 77.5547 16.1927 77.5547 15.4688C77.5547 14.5885 77.888 13.9062 78.5547 13.4219C79.2266 12.9323 80.1693 12.6875 81.3828 12.6875H82.7891V12.0234C82.7891 11.5182 82.638 11.1172 82.3359 10.8203C82.0339 10.5182 81.5885 10.3672 81 10.3672C80.4844 10.3672 80.0521 10.4974 79.7031 10.7578C79.3542 11.0182 79.1797 11.3333 79.1797 11.7031H77.7266C77.7266 11.2812 77.875 10.875 78.1719 10.4844C78.474 10.0885 78.8802 9.77604 79.3906 9.54688C79.9062 9.31771 80.4714 9.20312 81.0859 9.20312C82.0599 9.20312 82.8229 9.44792 83.375 9.9375C83.9271 10.4219 84.2135 11.0911 84.2344 11.9453V15.8359C84.2344 16.612 84.3333 17.2292 84.5312 17.6875V17.8125H83.0156ZM80.6172 16.7109C81.0703 16.7109 81.5 16.5938 81.9062 16.3594C82.3125 16.125 82.6068 15.8203 82.7891 15.4453V13.7109H81.6562C79.8854 13.7109 79 14.2292 79 15.2656C79 15.7188 79.151 16.0729 79.4531 16.3281C79.7552 16.5833 80.1432 16.7109 80.6172 16.7109ZM91.1484 11.6719C91.1484 11.276 90.9974 10.9635 90.6953 10.7344C90.3932 10.5 89.9792 10.3828 89.4531 10.3828C88.9427 10.3828 88.5156 10.5156 88.1719 10.7812C87.8333 11.0469 87.6641 11.3594 87.6641 11.7188H86.2266C86.2266 10.9844 86.5339 10.3828 87.1484 9.91406C87.763 9.44531 88.5312 9.21094 89.4531 9.21094C90.4427 9.21094 91.2135 9.42448 91.7656 9.85156C92.3177 10.2734 92.5938 10.8776 92.5938 11.6641C92.5938 12.0443 92.4792 12.3932 92.25 12.7109C92.0208 13.0286 91.6953 13.2812 91.2734 13.4688C92.2578 13.8021 92.75 14.4583 92.75 15.4375C92.75 16.2135 92.4505 16.8281 91.8516 17.2812C91.2526 17.7344 90.4531 17.9609 89.4531 17.9609C88.4792 17.9609 87.6745 17.724 87.0391 17.25C86.4089 16.7708 86.0938 16.125 86.0938 15.3125H87.5312C87.5312 15.724 87.7135 16.0781 88.0781 16.375C88.4479 16.6667 88.9062 16.8125 89.4531 16.8125C90.0052 16.8125 90.4505 16.6849 90.7891 16.4297C91.1276 16.1745 91.2969 15.8438 91.2969 15.4375C91.2969 14.9635 91.1536 14.625 90.8672 14.4219C90.5859 14.2135 90.1458 14.1094 89.5469 14.1094H88.1016V12.8906H89.6719C90.6562 12.8646 91.1484 12.4583 91.1484 11.6719ZM101.766 13.6797C101.766 14.9661 101.471 16.0026 100.883 16.7891C100.294 17.5755 99.4974 17.9688 98.4922 17.9688C97.4661 17.9688 96.6589 17.6432 96.0703 16.9922V21.0625H94.625V9.35938H95.9453L96.0156 10.2969C96.6042 9.56771 97.4219 9.20312 98.4688 9.20312C99.4844 9.20312 100.286 9.58594 100.875 10.3516C101.469 11.1172 101.766 12.1823 101.766 13.5469V13.6797ZM100.32 13.5156C100.32 12.5625 100.117 11.8099 99.7109 11.2578C99.3047 10.7057 98.7474 10.4297 98.0391 10.4297C97.1641 10.4297 96.5078 10.8177 96.0703 11.5938V15.6328C96.5026 16.4036 97.1641 16.7891 98.0547 16.7891C98.7474 16.7891 99.2969 16.5156 99.7031 15.9688C100.115 15.4167 100.32 14.599 100.32 13.5156ZM108.828 17.8125C108.745 17.6458 108.677 17.349 108.625 16.9219C107.953 17.6198 107.151 17.9688 106.219 17.9688C105.385 17.9688 104.701 17.7344 104.164 17.2656C103.633 16.7917 103.367 16.1927 103.367 15.4688C103.367 14.5885 103.701 13.9062 104.367 13.4219C105.039 12.9323 105.982 12.6875 107.195 12.6875H108.602V12.0234C108.602 11.5182 108.451 11.1172 108.148 10.8203C107.846 10.5182 107.401 10.3672 106.812 10.3672C106.297 10.3672 105.865 10.4974 105.516 10.7578C105.167 11.0182 104.992 11.3333 104.992 11.7031H103.539C103.539 11.2812 103.688 10.875 103.984 10.4844C104.286 10.0885 104.693 9.77604 105.203 9.54688C105.719 9.31771 106.284 9.20312 106.898 9.20312C107.872 9.20312 108.635 9.44792 109.188 9.9375C109.74 10.4219 110.026 11.0911 110.047 11.9453V15.8359C110.047 16.612 110.146 17.2292 110.344 17.6875V17.8125H108.828ZM106.43 16.7109C106.883 16.7109 107.312 16.5938 107.719 16.3594C108.125 16.125 108.419 15.8203 108.602 15.4453V13.7109H107.469C105.698 13.7109 104.812 14.2292 104.812 15.2656C104.812 15.7188 104.964 16.0729 105.266 16.3281C105.568 16.5833 105.956 16.7109 106.43 16.7109ZM116.023 9.84375C117.086 9.84375 117.935 10.2005 118.57 10.9141C119.211 11.6224 119.531 12.5573 119.531 13.7188V13.8516C119.531 14.6484 119.378 15.362 119.07 15.9922C118.763 16.6172 118.32 17.1042 117.742 17.4531C117.169 17.7969 116.508 17.9688 115.758 17.9688C114.622 17.9688 113.708 17.5911 113.016 16.8359C112.323 16.0755 111.977 15.0573 111.977 13.7812V13.0781C111.977 11.3021 112.305 9.89062 112.961 8.84375C113.622 7.79688 114.596 7.15885 115.883 6.92969C116.612 6.79948 117.104 6.64062 117.359 6.45312C117.615 6.26562 117.742 6.00781 117.742 5.67969H118.93C118.93 6.33073 118.781 6.83854 118.484 7.20312C118.193 7.56771 117.724 7.82552 117.078 7.97656L116 8.21875C115.141 8.42188 114.495 8.76562 114.062 9.25C113.635 9.72917 113.357 10.3698 113.227 11.1719C113.992 10.2865 114.924 9.84375 116.023 9.84375ZM115.742 11.0312C115.034 11.0312 114.471 11.2708 114.055 11.75C113.638 12.224 113.43 12.8828 113.43 13.7266V13.8516C113.43 14.7578 113.638 15.4766 114.055 16.0078C114.477 16.5339 115.044 16.7969 115.758 16.7969C116.477 16.7969 117.044 16.5312 117.461 16C117.878 15.4688 118.086 14.6927 118.086 13.6719C118.086 12.875 117.875 12.237 117.453 11.7578C117.036 11.2734 116.466 11.0312 115.742 11.0312ZM120.773 13.5078C120.773 12.6797 120.935 11.9349 121.258 11.2734C121.586 10.612 122.039 10.1016 122.617 9.74219C123.201 9.38281 123.865 9.20312 124.609 9.20312C125.76 9.20312 126.69 9.60156 127.398 10.3984C128.112 11.1953 128.469 12.2552 128.469 13.5781V13.6797C128.469 14.5026 128.31 15.2422 127.992 15.8984C127.68 16.5495 127.229 17.0573 126.641 17.4219C126.057 17.7865 125.385 17.9688 124.625 17.9688C123.479 17.9688 122.549 17.5703 121.836 16.7734C121.128 15.9766 120.773 14.9219 120.773 13.6094V13.5078ZM122.227 13.6797C122.227 14.6172 122.443 15.3698 122.875 15.9375C123.312 16.5052 123.896 16.7891 124.625 16.7891C125.359 16.7891 125.943 16.5026 126.375 15.9297C126.807 15.3516 127.023 14.5443 127.023 13.5078C127.023 12.5807 126.802 11.8307 126.359 11.2578C125.922 10.6797 125.339 10.3906 124.609 10.3906C123.896 10.3906 123.32 10.6745 122.883 11.2422C122.445 11.8099 122.227 12.6224 122.227 13.6797ZM136.391 10.5312H133.555V17.8125H132.109V10.5312H129.328V9.35938H136.391V10.5312ZM140.43 14.2109H139.375V17.8125H137.922V9.35938H139.375V12.9375H140.32L143.164 9.35938H144.914L141.57 13.4219L145.195 17.8125H143.359L140.43 14.2109ZM151.656 17.8125C151.573 17.6458 151.505 17.349 151.453 16.9219C150.781 17.6198 149.979 17.9688 149.047 17.9688C148.214 17.9688 147.529 17.7344 146.992 17.2656C146.461 16.7917 146.195 16.1927 146.195 15.4688C146.195 14.5885 146.529 13.9062 147.195 13.4219C147.867 12.9323 148.81 12.6875 150.023 12.6875H151.43V12.0234C151.43 11.5182 151.279 11.1172 150.977 10.8203C150.674 10.5182 150.229 10.3672 149.641 10.3672C149.125 10.3672 148.693 10.4974 148.344 10.7578C147.995 11.0182 147.82 11.3333 147.82 11.7031H146.367C146.367 11.2812 146.516 10.875 146.812 10.4844C147.115 10.0885 147.521 9.77604 148.031 9.54688C148.547 9.31771 149.112 9.20312 149.727 9.20312C150.701 9.20312 151.464 9.44792 152.016 9.9375C152.568 10.4219 152.854 11.0911 152.875 11.9453V15.8359C152.875 16.612 152.974 17.2292 153.172 17.6875V17.8125H151.656ZM149.258 16.7109C149.711 16.7109 150.141 16.5938 150.547 16.3594C150.953 16.125 151.247 15.8203 151.43 15.4453V13.7109H150.297C148.526 13.7109 147.641 14.2292 147.641 15.2656C147.641 15.7188 147.792 16.0729 148.094 16.3281C148.396 16.5833 148.784 16.7109 149.258 16.7109Z" fill="black"/>
<path opacity="0.54" fill-rule="evenodd" clip-rule="evenodd" d="M21.001 7.59191H19V18.1727H5.99902V20.524C5.99902 21.173 6.44902 21.6997 7.00002 21.6997H17.999L22 26.4023V8.76756C22 8.11743 21.552 7.59191 21.001 7.59191ZM16.001 2.88818H3C2.448 2.88818 2 3.41487 2 4.06501V20.5241L5.999 15.8215H16.001C16.552 15.8215 17 15.2948 17 14.6446V4.06501C17 3.41487 16.552 2.88818 16.001 2.88818Z" fill="black"/>
</svg>
