<svg width="117" height="31" viewBox="0 0 117 31" fill="none" xmlns="http://www.w3.org/2000/svg">
<path d="M16 1.81255V4.16384H8V1.81255H6V4.16384H5C3.89 4.16384 3.01 5.22192 3.01 6.51513L3 22.9742C3 24.2674 3.89 25.3255 5 25.3255H19C20.1 25.3255 21 24.2674 21 22.9742V6.51513C21 5.22192 20.1 4.16384 19 4.16384H18V1.81255H16ZM19 22.9742H5V10.0421H19V22.9742Z" fill="black" fill-opacity="0.54"/>
<path d="M44.3984 17.6251V18.8126H36.9531V17.7735L40.6797 13.6251C41.138 13.1146 41.4922 12.6824 41.7422 12.3282C41.9974 11.9688 42.1745 11.6485 42.2734 11.3672C42.3776 11.0808 42.4297 10.7891 42.4297 10.4922C42.4297 10.1172 42.3516 9.77871 42.1953 9.47662C42.0443 9.16933 41.8203 8.92454 41.5234 8.74225C41.2266 8.55996 40.8672 8.46881 40.4453 8.46881C39.9401 8.46881 39.5182 8.56777 39.1797 8.76569C38.8464 8.95839 38.5964 9.22923 38.4297 9.57819C38.263 9.92714 38.1797 10.3282 38.1797 10.7813H36.7344C36.7344 10.1407 36.875 9.55475 37.1562 9.0235C37.4375 8.49225 37.8542 8.07037 38.4062 7.75787C38.9583 7.44017 39.638 7.28131 40.4453 7.28131C41.1641 7.28131 41.7786 7.40892 42.2891 7.66412C42.7995 7.91412 43.1901 8.26829 43.4609 8.72662C43.737 9.17975 43.875 9.711 43.875 10.3204C43.875 10.6537 43.8177 10.9922 43.7031 11.336C43.5938 11.6745 43.4401 12.0131 43.2422 12.3516C43.0495 12.6902 42.8229 13.0235 42.5625 13.3516C42.3073 13.6797 42.0339 14.0027 41.7422 14.3204L38.6953 17.6251H44.3984ZM51.4922 7.42194H51.6172V8.6485H51.4922C50.7266 8.6485 50.0859 8.7735 49.5703 9.0235C49.0547 9.26829 48.6458 9.59902 48.3438 10.0157C48.0417 10.4271 47.8229 10.8907 47.6875 11.4063C47.5573 11.9219 47.4922 12.4454 47.4922 12.9766V14.6485C47.4922 15.1537 47.5521 15.6016 47.6719 15.9922C47.7917 16.3777 47.9557 16.7032 48.1641 16.9688C48.3724 17.2344 48.6068 17.435 48.8672 17.5704C49.1328 17.7058 49.4089 17.7735 49.6953 17.7735C50.0286 17.7735 50.3255 17.711 50.5859 17.586C50.8464 17.4558 51.0651 17.2761 51.2422 17.0469C51.4245 16.8126 51.5625 16.5365 51.6562 16.2188C51.75 15.9011 51.7969 15.5521 51.7969 15.1719C51.7969 14.8334 51.7552 14.5079 51.6719 14.1954C51.5885 13.8777 51.4609 13.5964 51.2891 13.3516C51.1172 13.1016 50.901 12.9063 50.6406 12.7657C50.3854 12.6199 50.0807 12.5469 49.7266 12.5469C49.3255 12.5469 48.9505 12.6459 48.6016 12.8438C48.2578 13.0365 47.974 13.2917 47.75 13.6094C47.5312 13.9219 47.4062 14.2631 47.375 14.6329L46.6094 14.6251C46.6823 14.0417 46.8177 13.5443 47.0156 13.1329C47.2188 12.7162 47.4688 12.3777 47.7656 12.1172C48.0677 11.8516 48.4036 11.6589 48.7734 11.5391C49.1484 11.4141 49.5443 11.3516 49.9609 11.3516C50.5286 11.3516 51.0182 11.4584 51.4297 11.6719C51.8411 11.8855 52.1797 12.1719 52.4453 12.5313C52.7109 12.8855 52.9062 13.2865 53.0312 13.7344C53.1615 14.1771 53.2266 14.6329 53.2266 15.1016C53.2266 15.6381 53.151 16.1407 53 16.6094C52.849 17.0782 52.6224 17.4896 52.3203 17.8438C52.0234 18.198 51.6562 18.474 51.2188 18.6719C50.7812 18.8699 50.2734 18.9688 49.6953 18.9688C49.0807 18.9688 48.5443 18.8438 48.0859 18.5938C47.6276 18.3386 47.2474 18.0001 46.9453 17.5782C46.6432 17.1563 46.4167 16.6876 46.2656 16.1719C46.1146 15.6563 46.0391 15.1329 46.0391 14.6016V13.9219C46.0391 13.1199 46.1198 12.3334 46.2812 11.5626C46.4427 10.7917 46.7214 10.0938 47.1172 9.46881C47.5182 8.84381 48.0729 8.34642 48.7812 7.97662C49.4896 7.60683 50.3932 7.42194 51.4922 7.42194ZM55.125 18.0469C55.125 17.8021 55.2005 17.5964 55.3516 17.4297C55.5078 17.2579 55.7318 17.1719 56.0234 17.1719C56.3151 17.1719 56.5365 17.2579 56.6875 17.4297C56.8438 17.5964 56.9219 17.8021 56.9219 18.0469C56.9219 18.2865 56.8438 18.4896 56.6875 18.6563C56.5365 18.823 56.3151 18.9063 56.0234 18.9063C55.7318 18.9063 55.5078 18.823 55.3516 18.6563C55.2005 18.4896 55.125 18.2865 55.125 18.0469ZM66.3047 12.2188V13.9532C66.3047 14.8855 66.2214 15.6719 66.0547 16.3126C65.888 16.9532 65.6484 17.4688 65.3359 17.8594C65.0234 18.2501 64.6458 18.5339 64.2031 18.711C63.7656 18.8829 63.2708 18.9688 62.7188 18.9688C62.2812 18.9688 61.8776 18.9141 61.5078 18.8047C61.138 18.6954 60.8047 18.5209 60.5078 18.2813C60.2161 18.0365 59.9661 17.7188 59.7578 17.3282C59.5495 16.9376 59.3906 16.4636 59.2812 15.9063C59.1719 15.349 59.1172 14.698 59.1172 13.9532V12.2188C59.1172 11.2865 59.2005 10.5053 59.3672 9.87506C59.5391 9.24485 59.7812 8.73964 60.0938 8.35944C60.4062 7.97402 60.7812 7.69798 61.2188 7.53131C61.6615 7.36464 62.1562 7.28131 62.7031 7.28131C63.1458 7.28131 63.5521 7.336 63.9219 7.44537C64.2969 7.54954 64.6302 7.71881 64.9219 7.95319C65.2135 8.18235 65.4609 8.48964 65.6641 8.87506C65.8724 9.25527 66.0312 9.72142 66.1406 10.2735C66.25 10.8256 66.3047 11.474 66.3047 12.2188ZM64.8516 14.1876V11.9766C64.8516 11.4662 64.8203 11.0183 64.7578 10.6329C64.7005 10.2422 64.6146 9.90892 64.5 9.63287C64.3854 9.35683 64.2396 9.13287 64.0625 8.961C63.8906 8.78912 63.6901 8.66412 63.4609 8.586C63.237 8.50267 62.9844 8.461 62.7031 8.461C62.3594 8.461 62.0547 8.5261 61.7891 8.65631C61.5234 8.78131 61.2995 8.98183 61.1172 9.25787C60.9401 9.53392 60.8047 9.89589 60.7109 10.3438C60.6172 10.7917 60.5703 11.336 60.5703 11.9766V14.1876C60.5703 14.698 60.599 15.1485 60.6562 15.5391C60.7188 15.9297 60.8099 16.2683 60.9297 16.5547C61.0495 16.836 61.1953 17.0678 61.3672 17.2501C61.5391 17.4324 61.737 17.5678 61.9609 17.6563C62.1901 17.7396 62.4427 17.7813 62.7188 17.7813C63.0729 17.7813 63.3828 17.7136 63.6484 17.5782C63.9141 17.4428 64.1354 17.2318 64.3125 16.9454C64.4948 16.6537 64.6302 16.2813 64.7188 15.8282C64.8073 15.3699 64.8516 14.823 64.8516 14.1876ZM73.7109 7.42194H73.8359V8.6485H73.7109C72.9453 8.6485 72.3047 8.7735 71.7891 9.0235C71.2734 9.26829 70.8646 9.59902 70.5625 10.0157C70.2604 10.4271 70.0417 10.8907 69.9062 11.4063C69.776 11.9219 69.7109 12.4454 69.7109 12.9766V14.6485C69.7109 15.1537 69.7708 15.6016 69.8906 15.9922C70.0104 16.3777 70.1745 16.7032 70.3828 16.9688C70.5911 17.2344 70.8255 17.435 71.0859 17.5704C71.3516 17.7058 71.6276 17.7735 71.9141 17.7735C72.2474 17.7735 72.5443 17.711 72.8047 17.586C73.0651 17.4558 73.2839 17.2761 73.4609 17.0469C73.6432 16.8126 73.7812 16.5365 73.875 16.2188C73.9688 15.9011 74.0156 15.5521 74.0156 15.1719C74.0156 14.8334 73.974 14.5079 73.8906 14.1954C73.8073 13.8777 73.6797 13.5964 73.5078 13.3516C73.3359 13.1016 73.1198 12.9063 72.8594 12.7657C72.6042 12.6199 72.2995 12.5469 71.9453 12.5469C71.5443 12.5469 71.1693 12.6459 70.8203 12.8438C70.4766 13.0365 70.1927 13.2917 69.9688 13.6094C69.75 13.9219 69.625 14.2631 69.5938 14.6329L68.8281 14.6251C68.901 14.0417 69.0365 13.5443 69.2344 13.1329C69.4375 12.7162 69.6875 12.3777 69.9844 12.1172C70.2865 11.8516 70.6224 11.6589 70.9922 11.5391C71.3672 11.4141 71.763 11.3516 72.1797 11.3516C72.7474 11.3516 73.237 11.4584 73.6484 11.6719C74.0599 11.8855 74.3984 12.1719 74.6641 12.5313C74.9297 12.8855 75.125 13.2865 75.25 13.7344C75.3802 14.1771 75.4453 14.6329 75.4453 15.1016C75.4453 15.6381 75.3698 16.1407 75.2188 16.6094C75.0677 17.0782 74.8411 17.4896 74.5391 17.8438C74.2422 18.198 73.875 18.474 73.4375 18.6719C73 18.8699 72.4922 18.9688 71.9141 18.9688C71.2995 18.9688 70.763 18.8438 70.3047 18.5938C69.8464 18.3386 69.4661 18.0001 69.1641 17.5782C68.862 17.1563 68.6354 16.6876 68.4844 16.1719C68.3333 15.6563 68.2578 15.1329 68.2578 14.6016V13.9219C68.2578 13.1199 68.3385 12.3334 68.5 11.5626C68.6615 10.7917 68.9401 10.0938 69.3359 9.46881C69.737 8.84381 70.2917 8.34642 71 7.97662C71.7083 7.60683 72.612 7.42194 73.7109 7.42194ZM77.3438 18.0469C77.3438 17.8021 77.4193 17.5964 77.5703 17.4297C77.7266 17.2579 77.9505 17.1719 78.2422 17.1719C78.5339 17.1719 78.7552 17.2579 78.9062 17.4297C79.0625 17.5964 79.1406 17.8021 79.1406 18.0469C79.1406 18.2865 79.0625 18.4896 78.9062 18.6563C78.7552 18.823 78.5339 18.9063 78.2422 18.9063C77.9505 18.9063 77.7266 18.823 77.5703 18.6563C77.4193 18.4896 77.3438 18.2865 77.3438 18.0469ZM88.8359 17.6251V18.8126H81.3906V17.7735L85.1172 13.6251C85.5755 13.1146 85.9297 12.6824 86.1797 12.3282C86.4349 11.9688 86.612 11.6485 86.7109 11.3672C86.8151 11.0808 86.8672 10.7891 86.8672 10.4922C86.8672 10.1172 86.7891 9.77871 86.6328 9.47662C86.4818 9.16933 86.2578 8.92454 85.9609 8.74225C85.6641 8.55996 85.3047 8.46881 84.8828 8.46881C84.3776 8.46881 83.9557 8.56777 83.6172 8.76569C83.2839 8.95839 83.0339 9.22923 82.8672 9.57819C82.7005 9.92714 82.6172 10.3282 82.6172 10.7813H81.1719C81.1719 10.1407 81.3125 9.55475 81.5938 9.0235C81.875 8.49225 82.2917 8.07037 82.8438 7.75787C83.3958 7.44017 84.0755 7.28131 84.8828 7.28131C85.6016 7.28131 86.2161 7.40892 86.7266 7.66412C87.237 7.91412 87.6276 8.26829 87.8984 8.72662C88.1745 9.17975 88.3125 9.711 88.3125 10.3204C88.3125 10.6537 88.2552 10.9922 88.1406 11.336C88.0312 11.6745 87.8776 12.0131 87.6797 12.3516C87.487 12.6902 87.2604 13.0235 87 13.3516C86.7448 13.6797 86.4714 14.0027 86.1797 14.3204L83.1328 17.6251H88.8359ZM97.5234 12.2188V13.9532C97.5234 14.8855 97.4401 15.6719 97.2734 16.3126C97.1068 16.9532 96.8672 17.4688 96.5547 17.8594C96.2422 18.2501 95.8646 18.5339 95.4219 18.711C94.9844 18.8829 94.4896 18.9688 93.9375 18.9688C93.5 18.9688 93.0964 18.9141 92.7266 18.8047C92.3568 18.6954 92.0234 18.5209 91.7266 18.2813C91.4349 18.0365 91.1849 17.7188 90.9766 17.3282C90.7682 16.9376 90.6094 16.4636 90.5 15.9063C90.3906 15.349 90.3359 14.698 90.3359 13.9532V12.2188C90.3359 11.2865 90.4193 10.5053 90.5859 9.87506C90.7578 9.24485 91 8.73964 91.3125 8.35944C91.625 7.97402 92 7.69798 92.4375 7.53131C92.8802 7.36464 93.375 7.28131 93.9219 7.28131C94.3646 7.28131 94.7708 7.336 95.1406 7.44537C95.5156 7.54954 95.849 7.71881 96.1406 7.95319C96.4323 8.18235 96.6797 8.48964 96.8828 8.87506C97.0911 9.25527 97.25 9.72142 97.3594 10.2735C97.4688 10.8256 97.5234 11.474 97.5234 12.2188ZM96.0703 14.1876V11.9766C96.0703 11.4662 96.0391 11.0183 95.9766 10.6329C95.9193 10.2422 95.8333 9.90892 95.7188 9.63287C95.6042 9.35683 95.4583 9.13287 95.2812 8.961C95.1094 8.78912 94.9089 8.66412 94.6797 8.586C94.4557 8.50267 94.2031 8.461 93.9219 8.461C93.5781 8.461 93.2734 8.5261 93.0078 8.65631C92.7422 8.78131 92.5182 8.98183 92.3359 9.25787C92.1589 9.53392 92.0234 9.89589 91.9297 10.3438C91.8359 10.7917 91.7891 11.336 91.7891 11.9766V14.1876C91.7891 14.698 91.8177 15.1485 91.875 15.5391C91.9375 15.9297 92.0286 16.2683 92.1484 16.5547C92.2682 16.836 92.4141 17.0678 92.5859 17.2501C92.7578 17.4324 92.9557 17.5678 93.1797 17.6563C93.4089 17.7396 93.6615 17.7813 93.9375 17.7813C94.2917 17.7813 94.6016 17.7136 94.8672 17.5782C95.1328 17.4428 95.3542 17.2318 95.5312 16.9454C95.7135 16.6537 95.849 16.2813 95.9375 15.8282C96.026 15.3699 96.0703 14.823 96.0703 14.1876ZM106.836 17.6251V18.8126H99.3906V17.7735L103.117 13.6251C103.576 13.1146 103.93 12.6824 104.18 12.3282C104.435 11.9688 104.612 11.6485 104.711 11.3672C104.815 11.0808 104.867 10.7891 104.867 10.4922C104.867 10.1172 104.789 9.77871 104.633 9.47662C104.482 9.16933 104.258 8.92454 103.961 8.74225C103.664 8.55996 103.305 8.46881 102.883 8.46881C102.378 8.46881 101.956 8.56777 101.617 8.76569C101.284 8.95839 101.034 9.22923 100.867 9.57819C100.701 9.92714 100.617 10.3282 100.617 10.7813H99.1719C99.1719 10.1407 99.3125 9.55475 99.5938 9.0235C99.875 8.49225 100.292 8.07037 100.844 7.75787C101.396 7.44017 102.076 7.28131 102.883 7.28131C103.602 7.28131 104.216 7.40892 104.727 7.66412C105.237 7.91412 105.628 8.26829 105.898 8.72662C106.174 9.17975 106.312 9.711 106.312 10.3204C106.312 10.6537 106.255 10.9922 106.141 11.336C106.031 11.6745 105.878 12.0131 105.68 12.3516C105.487 12.6902 105.26 13.0235 105 13.3516C104.745 13.6797 104.471 14.0027 104.18 14.3204L101.133 17.6251H106.836ZM115.523 12.2188V13.9532C115.523 14.8855 115.44 15.6719 115.273 16.3126C115.107 16.9532 114.867 17.4688 114.555 17.8594C114.242 18.2501 113.865 18.5339 113.422 18.711C112.984 18.8829 112.49 18.9688 111.938 18.9688C111.5 18.9688 111.096 18.9141 110.727 18.8047C110.357 18.6954 110.023 18.5209 109.727 18.2813C109.435 18.0365 109.185 17.7188 108.977 17.3282C108.768 16.9376 108.609 16.4636 108.5 15.9063C108.391 15.349 108.336 14.698 108.336 13.9532V12.2188C108.336 11.2865 108.419 10.5053 108.586 9.87506C108.758 9.24485 109 8.73964 109.312 8.35944C109.625 7.97402 110 7.69798 110.438 7.53131C110.88 7.36464 111.375 7.28131 111.922 7.28131C112.365 7.28131 112.771 7.336 113.141 7.44537C113.516 7.54954 113.849 7.71881 114.141 7.95319C114.432 8.18235 114.68 8.48964 114.883 8.87506C115.091 9.25527 115.25 9.72142 115.359 10.2735C115.469 10.8256 115.523 11.474 115.523 12.2188ZM114.07 14.1876V11.9766C114.07 11.4662 114.039 11.0183 113.977 10.6329C113.919 10.2422 113.833 9.90892 113.719 9.63287C113.604 9.35683 113.458 9.13287 113.281 8.961C113.109 8.78912 112.909 8.66412 112.68 8.586C112.456 8.50267 112.203 8.461 111.922 8.461C111.578 8.461 111.273 8.5261 111.008 8.65631C110.742 8.78131 110.518 8.98183 110.336 9.25787C110.159 9.53392 110.023 9.89589 109.93 10.3438C109.836 10.7917 109.789 11.336 109.789 11.9766V14.1876C109.789 14.698 109.818 15.1485 109.875 15.5391C109.938 15.9297 110.029 16.2683 110.148 16.5547C110.268 16.836 110.414 17.0678 110.586 17.2501C110.758 17.4324 110.956 17.5678 111.18 17.6563C111.409 17.7396 111.661 17.7813 111.938 17.7813C112.292 17.7813 112.602 17.7136 112.867 17.5782C113.133 17.4428 113.354 17.2318 113.531 16.9454C113.714 16.6537 113.849 16.2813 113.938 15.8282C114.026 15.3699 114.07 14.823 114.07 14.1876Z" fill="black"/>
</svg>
