<svg width="55" height="29" viewBox="0 0 55 29" fill="none" xmlns="http://www.w3.org/2000/svg">
<path d="M41.3984 16.8126V18.0001H33.9531V16.961L37.6797 12.8126C38.138 12.3021 38.4922 11.8699 38.7422 11.5157C38.9974 11.1563 39.1745 10.836 39.2734 10.5547C39.3776 10.2683 39.4297 9.97662 39.4297 9.67975C39.4297 9.30475 39.3516 8.96621 39.1953 8.66412C39.0443 8.35683 38.8203 8.11204 38.5234 7.92975C38.2266 7.74746 37.8672 7.65631 37.4453 7.65631C36.9401 7.65631 36.5182 7.75527 36.1797 7.95319C35.8464 8.14589 35.5964 8.41673 35.4297 8.76569C35.263 9.11464 35.1797 9.51569 35.1797 9.96881H33.7344C33.7344 9.32819 33.875 8.74225 34.1562 8.211C34.4375 7.67975 34.8542 7.25787 35.4062 6.94537C35.9583 6.62767 36.638 6.46881 37.4453 6.46881C38.1641 6.46881 38.7786 6.59642 39.2891 6.85162C39.7995 7.10162 40.1901 7.45579 40.4609 7.91412C40.737 8.36725 40.875 8.8985 40.875 9.50787C40.875 9.84121 40.8177 10.1797 40.7031 10.5235C40.5938 10.862 40.4401 11.2006 40.2422 11.5391C40.0495 11.8777 39.8229 12.211 39.5625 12.5391C39.3073 12.8672 39.0339 13.1902 38.7422 13.5079L35.6953 16.8126H41.3984ZM47.6953 6.56256V18.0001H46.25V8.36725L43.3359 9.42975V8.12506L47.4688 6.56256H47.6953Z" fill="black"/>
<path d="M12 5.92731C7 5.92731 2.73 9.58357 1 14.7447C2.73 19.9057 7 23.562 12 23.562C17 23.562 21.27 19.9057 23 14.7447C21.27 9.58357 17 5.92731 12 5.92731ZM12 20.6229C9.24 20.6229 7 17.9894 7 14.7447C7 11.4999 9.24 8.86642 12 8.86642C14.76 8.86642 17 11.4999 17 14.7447C17 17.9894 14.76 20.6229 12 20.6229ZM12 11.2177C10.34 11.2177 9 12.7931 9 14.7447C9 16.6962 10.34 18.2716 12 18.2716C13.66 18.2716 15 16.6962 15 14.7447C15 12.7931 13.66 11.2177 12 11.2177Z" fill="black" fill-opacity="0.54"/>
</svg>
